<svg width="137" height="46" viewBox="0 0 137 46" fill="none" xmlns="http://www.w3.org/2000/svg">
<path d="M0.84 32L5.256 14.48H9.12L13.56 32H10.488L9.528 27.752H4.872L3.912 32H0.84ZM5.424 25.304H8.976L7.92 20.6C7.744 19.816 7.592 19.112 7.464 18.488C7.336 17.848 7.248 17.384 7.2 17.096C7.152 17.384 7.064 17.848 6.936 18.488C6.824 19.112 6.672 19.808 6.48 20.576L5.424 25.304ZM21.7106 32.24C20.0306 32.24 18.7106 31.776 17.7506 30.848C16.7906 29.904 16.3106 28.624 16.3106 27.008V18.8H19.3106V26.984C19.3106 27.832 19.5186 28.488 19.9346 28.952C20.3506 29.4 20.9426 29.624 21.7106 29.624C22.4626 29.624 23.0466 29.4 23.4626 28.952C23.8946 28.488 24.1106 27.832 24.1106 26.984V18.8H27.1106V27.008C27.1106 28.624 26.6226 29.904 25.6466 30.848C24.6706 31.776 23.3586 32.24 21.7106 32.24ZM36.2932 32.24C35.1732 32.24 34.1892 32.032 33.3412 31.616C32.5092 31.184 31.8612 30.584 31.3972 29.816C30.9332 29.032 30.7012 28.112 30.7012 27.056V23.744C30.7012 22.672 30.9332 21.752 31.3972 20.984C31.8612 20.216 32.5092 19.624 33.3412 19.208C34.1892 18.776 35.1732 18.56 36.2932 18.56C37.9572 18.56 39.2852 18.992 40.2773 19.856C41.2693 20.704 41.7893 21.864 41.8373 23.336H38.8372C38.7893 22.648 38.5413 22.12 38.0933 21.752C37.6613 21.368 37.0612 21.176 36.2932 21.176C35.4933 21.176 34.8613 21.4 34.3972 21.848C33.9332 22.28 33.7012 22.904 33.7012 23.72V27.056C33.7012 27.872 33.9332 28.504 34.3972 28.952C34.8613 29.4 35.4933 29.624 36.2932 29.624C37.0612 29.624 37.6613 29.44 38.0933 29.072C38.5413 28.688 38.7893 28.152 38.8372 27.464H41.8373C41.7893 28.936 41.2693 30.104 40.2773 30.968C39.2852 31.816 37.9572 32.24 36.2932 32.24ZM52.1719 32C50.9079 32 49.9159 31.648 49.1959 30.944C48.4919 30.24 48.1399 29.272 48.1399 28.04V21.512H44.5639V18.8H48.1399V15.08H51.1639V18.8H56.2279V21.512H51.1639V28.04C51.1639 28.872 51.5719 29.288 52.3879 29.288H55.9879V32H52.1719ZM59.8665 32V29.264H64.4745V21.512H60.4665V18.8H67.3545V29.264H71.4345V32H59.8665ZM65.6745 16.592C65.0665 16.592 64.5865 16.44 64.2345 16.136C63.8825 15.816 63.7065 15.392 63.7065 14.864C63.7065 14.336 63.8825 13.92 64.2345 13.616C64.5865 13.296 65.0665 13.136 65.6745 13.136C66.2825 13.136 66.7625 13.296 67.1145 13.616C67.4665 13.92 67.6425 14.336 67.6425 14.864C67.6425 15.392 67.4665 15.816 67.1145 16.136C66.7625 16.44 66.2825 16.592 65.6745 16.592ZM79.7531 32.216C78.6331 32.216 77.6571 32.008 76.8251 31.592C76.0091 31.16 75.3691 30.56 74.9051 29.792C74.4571 29.008 74.2331 28.088 74.2331 27.032V23.768C74.2331 22.712 74.4571 21.8 74.9051 21.032C75.3691 20.248 76.0091 19.648 76.8251 19.232C77.6571 18.8 78.6331 18.584 79.7531 18.584C80.8891 18.584 81.8651 18.8 82.6811 19.232C83.4971 19.648 84.1291 20.248 84.5771 21.032C85.0411 21.8 85.2731 22.704 85.2731 23.744V27.032C85.2731 28.088 85.0411 29.008 84.5771 29.792C84.1291 30.56 83.4971 31.16 82.6811 31.592C81.8651 32.008 80.8891 32.216 79.7531 32.216ZM79.7531 29.6C80.5531 29.6 81.1691 29.384 81.6011 28.952C82.0491 28.504 82.2731 27.864 82.2731 27.032V23.768C82.2731 22.92 82.0491 22.28 81.6011 21.848C81.1691 21.416 80.5531 21.2 79.7531 21.2C78.9691 21.2 78.3531 21.416 77.9051 21.848C77.4571 22.28 77.2331 22.92 77.2331 23.768V27.032C77.2331 27.864 77.4571 28.504 77.9051 28.952C78.3531 29.384 78.9691 29.6 79.7531 29.6ZM88.9118 32V18.8H91.8398V21.32H92.6558L91.8398 22.016C91.8398 20.928 92.1518 20.08 92.7758 19.472C93.4158 18.864 94.2878 18.56 95.3918 18.56C96.6878 18.56 97.7198 18.992 98.4878 19.856C99.2718 20.72 99.6638 21.88 99.6638 23.336V32H96.6638V23.648C96.6638 22.848 96.4558 22.232 96.0398 21.8C95.6238 21.368 95.0398 21.152 94.2878 21.152C93.5518 21.152 92.9678 21.376 92.5358 21.824C92.1198 22.272 91.9118 22.912 91.9118 23.744V32H88.9118Z" fill="#1D3557"/>
<rect x="103.5" y="11.5" width="23" height="23" fill="#2563EB" stroke="#F8F9FA"/>
</svg>
