<svg width="141" height="46" viewBox="0 0 141 46" fill="none" xmlns="http://www.w3.org/2000/svg">
<g filter="url(#filter0_d_214_1455)">
<path d="M3.99995 29L7.03995 17.32H8.97595L12 29H10.544L9.77595 25.896H6.23995L5.47195 29H3.99995ZM6.52795 24.68H9.47195L8.57595 21.08C8.40528 20.3973 8.27195 19.8267 8.17595 19.368C8.07995 18.9093 8.02128 18.6107 7.99995 18.472C7.97862 18.6107 7.91995 18.9093 7.82395 19.368C7.72795 19.8267 7.59462 20.392 7.42395 21.064L6.52795 24.68ZM17.6577 29.16C16.6444 29.16 15.8337 28.8613 15.2257 28.264C14.6177 27.656 14.3137 26.8347 14.3137 25.8V20.2H15.7537V25.8C15.7537 26.4613 15.9244 26.9787 16.2657 27.352C16.607 27.7147 17.071 27.896 17.6577 27.896C18.255 27.896 18.7244 27.7147 19.0657 27.352C19.4177 26.9787 19.5937 26.4613 19.5937 25.8V20.2H21.0337V25.8C21.0337 26.8347 20.7244 27.656 20.1057 28.264C19.487 28.8613 18.671 29.16 17.6577 29.16ZM27.4115 29.16C26.7075 29.16 26.0888 29.0267 25.5555 28.76C25.0328 28.4933 24.6275 28.1093 24.3395 27.608C24.0515 27.096 23.9075 26.4933 23.9075 25.8V23.4C23.9075 22.696 24.0515 22.0933 24.3395 21.592C24.6275 21.0907 25.0328 20.7067 25.5555 20.44C26.0888 20.1733 26.7075 20.04 27.4115 20.04C28.4248 20.04 29.2408 20.312 29.8595 20.856C30.4781 21.4 30.8035 22.1413 30.8355 23.08H29.3955C29.3635 22.5147 29.1715 22.0827 28.8195 21.784C28.4781 21.4747 28.0088 21.32 27.4115 21.32C26.7821 21.32 26.2808 21.5013 25.9075 21.864C25.5341 22.216 25.3475 22.7227 25.3475 23.384V25.8C25.3475 26.4613 25.5341 26.9733 25.9075 27.336C26.2808 27.6987 26.7821 27.88 27.4115 27.88C28.0088 27.88 28.4781 27.7253 28.8195 27.416C29.1715 27.1067 29.3635 26.6747 29.3955 26.12H30.8355C30.8035 27.0587 30.4781 27.8 29.8595 28.344C29.2408 28.888 28.4248 29.16 27.4115 29.16ZM37.9812 29C37.2239 29 36.6319 28.7973 36.2052 28.392C35.7892 27.9867 35.5812 27.416 35.5812 26.68V21.512H33.1012V20.2H35.5812V17.72H37.0212V20.2H40.5412V21.512H37.0212V26.68C37.0212 27.352 37.3412 27.688 37.9812 27.688H40.3812V29H37.9812ZM43.255 29V27.688H46.375V21.512H43.655V20.2H47.815V27.688H50.775V29H43.255ZM46.935 18.616C46.583 18.616 46.3056 18.5253 46.103 18.344C45.9003 18.1627 45.799 17.9173 45.799 17.608C45.799 17.288 45.9003 17.0373 46.103 16.856C46.3056 16.664 46.583 16.568 46.935 16.568C47.287 16.568 47.5643 16.664 47.767 16.856C47.9696 17.0373 48.071 17.288 48.071 17.608C48.071 17.9173 47.9696 18.1627 47.767 18.344C47.5643 18.5253 47.287 18.616 46.935 18.616ZM56.3687 29.128C55.6647 29.128 55.0567 28.9947 54.5447 28.728C54.0327 28.4613 53.6327 28.0773 53.3447 27.576C53.0674 27.064 52.9287 26.4613 52.9287 25.768V23.432C52.9287 22.728 53.0674 22.1253 53.3447 21.624C53.6327 21.1227 54.0327 20.7387 54.5447 20.472C55.0567 20.2053 55.6647 20.072 56.3687 20.072C57.0727 20.072 57.6807 20.2053 58.1927 20.472C58.7047 20.7387 59.0994 21.1227 59.3767 21.624C59.6647 22.1253 59.8087 22.7227 59.8087 23.416V25.768C59.8087 26.4613 59.6647 27.064 59.3767 27.576C59.0994 28.0773 58.7047 28.4613 58.1927 28.728C57.6807 28.9947 57.0727 29.128 56.3687 29.128ZM56.3687 27.848C56.998 27.848 57.4887 27.672 57.8407 27.32C58.1927 26.968 58.3687 26.4507 58.3687 25.768V23.432C58.3687 22.7493 58.1927 22.232 57.8407 21.88C57.4887 21.528 56.998 21.352 56.3687 21.352C55.75 21.352 55.2594 21.528 54.8967 21.88C54.5447 22.232 54.3687 22.7493 54.3687 23.432V25.768C54.3687 26.4507 54.5447 26.968 54.8967 27.32C55.2594 27.672 55.75 27.848 56.3687 27.848ZM62.7145 29V20.2H64.1545V21.88H64.4585L64.1545 22.216C64.1545 21.5227 64.3625 20.9893 64.7785 20.616C65.1945 20.232 65.7705 20.04 66.5065 20.04C67.3918 20.04 68.0958 20.312 68.6185 20.856C69.1411 21.4 69.4025 22.1413 69.4025 23.08V29H67.9625V23.24C67.9625 22.6107 67.7918 22.1307 67.4505 21.8C67.1198 21.4587 66.6665 21.288 66.0905 21.288C65.4931 21.288 65.0185 21.4693 64.6665 21.832C64.3251 22.1947 64.1545 22.7173 64.1545 23.4V29H62.7145Z" fill="#0CEEAA" fill-opacity="0.4"/>
<rect x="75.7" y="18.5" width="11" height="11" fill="#F4A261" stroke="#F8F9FA"/>
</g>
<defs>
<filter id="filter0_d_214_1455" x="0" y="16.568" width="91.2" height="21.432" filterUnits="userSpaceOnUse" color-interpolation-filters="sRGB">
<feFlood flood-opacity="0" result="BackgroundImageFix"/>
<feColorMatrix in="SourceAlpha" type="matrix" values="0 0 0 0 0 0 0 0 0 0 0 0 0 0 0 0 0 0 127 0" result="hardAlpha"/>
<feOffset dy="4"/>
<feGaussianBlur stdDeviation="2"/>
<feComposite in2="hardAlpha" operator="out"/>
<feColorMatrix type="matrix" values="0 0 0 0 0 0 0 0 0 0 0 0 0 0 0 0 0 0 0.25 0"/>
<feBlend mode="normal" in2="BackgroundImageFix" result="effect1_dropShadow_214_1455"/>
<feBlend mode="normal" in="SourceGraphic" in2="effect1_dropShadow_214_1455" result="shape"/>
</filter>
</defs>
</svg>
