<svg width="140" height="46" viewBox="0 0 140 46" fill="none" xmlns="http://www.w3.org/2000/svg">
<g filter="url(#filter0_d_214_1428)">
<path d="M4.00005 32L8.56005 14.48H11.464L16 32H13.816L12.664 27.344H7.36005L6.20805 32H4.00005ZM7.79205 25.52H12.208L10.864 20.12C10.608 19.096 10.408 18.24 10.264 17.552C10.12 16.864 10.032 16.416 10 16.208C9.96805 16.416 9.88005 16.864 9.73605 17.552C9.59205 18.24 9.39205 19.088 9.13605 20.096L7.79205 25.52ZM24.4867 32.24C22.9667 32.24 21.7507 31.792 20.8387 30.896C19.9267 29.984 19.4707 28.752 19.4707 27.2V18.8H21.6307V27.2C21.6307 28.192 21.8867 28.968 22.3987 29.528C22.9107 30.072 23.6067 30.344 24.4867 30.344C25.3827 30.344 26.0867 30.072 26.5987 29.528C27.1267 28.968 27.3907 28.192 27.3907 27.2V18.8H29.5507V27.2C29.5507 28.752 29.0867 29.984 28.1587 30.896C27.2307 31.792 26.0067 32.24 24.4867 32.24ZM39.1173 32.24C38.0613 32.24 37.1333 32.04 36.3333 31.64C35.5493 31.24 34.9413 30.664 34.5093 29.912C34.0773 29.144 33.8613 28.24 33.8613 27.2V23.6C33.8613 22.544 34.0773 21.64 34.5093 20.888C34.9413 20.136 35.5493 19.56 36.3333 19.16C37.1333 18.76 38.0613 18.56 39.1173 18.56C40.6373 18.56 41.8613 18.968 42.7893 19.784C43.7173 20.6 44.2053 21.712 44.2533 23.12H42.0933C42.0453 22.272 41.7573 21.624 41.2293 21.176C40.7173 20.712 40.0133 20.48 39.1173 20.48C38.1733 20.48 37.4213 20.752 36.8613 21.296C36.3013 21.824 36.0213 22.584 36.0213 23.576V27.2C36.0213 28.192 36.3013 28.96 36.8613 29.504C37.4213 30.048 38.1733 30.32 39.1173 30.32C40.0133 30.32 40.7173 30.088 41.2293 29.624C41.7573 29.16 42.0453 28.512 42.0933 27.68H44.2533C44.2053 29.088 43.7173 30.2 42.7893 31.016C41.8613 31.832 40.6373 32.24 39.1173 32.24ZM54.9719 32C53.8359 32 52.9479 31.696 52.3079 31.088C51.6839 30.48 51.3719 29.624 51.3719 28.52V20.768H47.6519V18.8H51.3719V15.08H53.5319V18.8H58.8119V20.768H53.5319V28.52C53.5319 29.528 54.0119 30.032 54.9719 30.032H58.5719V32H54.9719ZM62.8825 32V30.032H67.5625V20.768H63.4825V18.8H69.7225V30.032H74.1625V32H62.8825ZM68.4025 16.424C67.8745 16.424 67.4585 16.288 67.1545 16.016C66.8505 15.744 66.6985 15.376 66.6985 14.912C66.6985 14.432 66.8505 14.056 67.1545 13.784C67.4585 13.496 67.8745 13.352 68.4025 13.352C68.9305 13.352 69.3465 13.496 69.6505 13.784C69.9545 14.056 70.1065 14.432 70.1065 14.912C70.1065 15.376 69.9545 15.744 69.6505 16.016C69.3465 16.288 68.9305 16.424 68.4025 16.424ZM82.5532 32.192C81.4972 32.192 80.5852 31.992 79.8172 31.592C79.0492 31.192 78.4492 30.616 78.0172 29.864C77.6012 29.096 77.3932 28.192 77.3932 27.152V23.648C77.3932 22.592 77.6012 21.688 78.0172 20.936C78.4492 20.184 79.0492 19.608 79.8172 19.208C80.5852 18.808 81.4972 18.608 82.5532 18.608C83.6092 18.608 84.5212 18.808 85.2892 19.208C86.0572 19.608 86.6492 20.184 87.0652 20.936C87.4972 21.688 87.7132 22.584 87.7132 23.624V27.152C87.7132 28.192 87.4972 29.096 87.0652 29.864C86.6492 30.616 86.0572 31.192 85.2892 31.592C84.5212 31.992 83.6092 32.192 82.5532 32.192ZM82.5532 30.272C83.4972 30.272 84.2332 30.008 84.7612 29.48C85.2892 28.952 85.5532 28.176 85.5532 27.152V23.648C85.5532 22.624 85.2892 21.848 84.7612 21.32C84.2332 20.792 83.4972 20.528 82.5532 20.528C81.6252 20.528 80.8892 20.792 80.3452 21.32C79.8172 21.848 79.5532 22.624 79.5532 23.648V27.152C79.5532 28.176 79.8172 28.952 80.3452 29.48C80.8892 30.008 81.6252 30.272 82.5532 30.272ZM92.0718 32V18.8H94.2318V21.32H94.6878L94.2318 21.824C94.2318 20.784 94.5438 19.984 95.1678 19.424C95.7918 18.848 96.6558 18.56 97.7598 18.56C99.0878 18.56 100.144 18.968 100.928 19.784C101.712 20.6 102.104 21.712 102.104 23.12V32H99.9438V23.36C99.9438 22.416 99.6878 21.696 99.1758 21.2C98.6798 20.688 97.9998 20.432 97.1358 20.432C96.2398 20.432 95.5278 20.704 94.9998 21.248C94.4878 21.792 94.2318 22.576 94.2318 23.6V32H92.0718Z" fill="#0CEEAA" fill-opacity="0.4"/>
<rect x="107.3" y="11.5" width="23" height="23" fill="#F4A261" stroke="#F8F9FA"/>
</g>
<defs>
<filter id="filter0_d_214_1428" x="0" y="11" width="134.8" height="32" filterUnits="userSpaceOnUse" color-interpolation-filters="sRGB">
<feFlood flood-opacity="0" result="BackgroundImageFix"/>
<feColorMatrix in="SourceAlpha" type="matrix" values="0 0 0 0 0 0 0 0 0 0 0 0 0 0 0 0 0 0 127 0" result="hardAlpha"/>
<feOffset dy="4"/>
<feGaussianBlur stdDeviation="2"/>
<feComposite in2="hardAlpha" operator="out"/>
<feColorMatrix type="matrix" values="0 0 0 0 0 0 0 0 0 0 0 0 0 0 0 0 0 0 0.25 0"/>
<feBlend mode="normal" in2="BackgroundImageFix" result="effect1_dropShadow_214_1428"/>
<feBlend mode="normal" in="SourceGraphic" in2="effect1_dropShadow_214_1428" result="shape"/>
</filter>
</defs>
</svg>
